<svg width="48" height="63" viewBox="0 0 48 63" fill="none" xmlns="http://www.w3.org/2000/svg">
<path d="M48 9.51599V59.9398C48 61.143 47.031 62.1118 45.8275 62.1118H5.81443C4.61091 62.1118 3.64185 61.143 3.64185 59.9398V2.17196C3.64185 0.968787 4.61091 0 5.81443 0H38.4813L48 9.51599Z" fill="white"/>
<path d="M48 9.51599V59.9398C48 61.143 47.0309 62.1118 45.8274 62.1118H42.7326C43.9361 62.1118 44.9052 61.143 44.9052 59.9398V9.51599L35.4021 0.015625H38.4969L48 9.51599Z" fill="#E5E5E5"/>
<path d="M48 9.51599H40.6539C39.4504 9.51599 38.4813 8.54721 38.4813 7.34403V0.015625L48 9.51599Z" fill="#CECECE"/>
<path d="M38.8408 14.3599H13.0668C12.1915 14.3599 11.4882 13.6568 11.4882 12.7817C11.4882 11.9067 12.1915 11.2036 13.0668 11.2036H38.8252C39.7005 11.2036 40.4038 11.9067 40.4038 12.7817C40.4038 13.6568 39.7005 14.3599 38.8408 14.3599Z" fill="#CECECE"/>
<path d="M38.8408 22.4384H13.0668C12.1915 22.4384 11.4882 21.7352 11.4882 20.8602C11.4882 19.9851 12.1915 19.282 13.0668 19.282H38.8252C39.7005 19.282 40.4038 19.9851 40.4038 20.8602C40.4038 21.7352 39.7005 22.4384 38.8408 22.4384Z" fill="#CECECE"/>
<path d="M38.8408 30.5012H13.0668C12.1915 30.5012 11.4882 29.798 11.4882 28.923C11.4882 28.048 12.1915 27.3448 13.0668 27.3448H38.8252C39.7005 27.3448 40.4038 28.048 40.4038 28.923C40.4038 29.798 39.7005 30.5012 38.8408 30.5012Z" fill="#CECECE"/>
<path d="M38.8408 38.2827H13.0668C12.1915 38.2827 11.4882 37.5796 11.4882 36.7046C11.4882 35.8295 12.1915 35.1264 13.0668 35.1264H38.8252C39.7005 35.1264 40.4038 35.8295 40.4038 36.7046C40.4038 37.5796 39.7005 38.2827 38.8408 38.2827Z" fill="#CECECE"/>
<path d="M38.8408 46.3455H13.0668C12.1915 46.3455 11.4882 45.6424 11.4882 44.7674C11.4882 43.8923 12.1915 43.1892 13.0668 43.1892H38.8252C39.7005 43.1892 40.4038 43.8923 40.4038 44.7674C40.4038 45.6424 39.7005 46.3455 38.8408 46.3455Z" fill="#CECECE"/>
<path d="M38.8408 54.424H13.0668C12.1915 54.424 11.4882 53.7208 11.4882 52.8458C11.4882 51.9708 12.1915 51.2676 13.0668 51.2676H38.8252C39.7005 51.2676 40.4038 51.9708 40.4038 52.8458C40.4038 53.7208 39.7005 54.424 38.8408 54.424Z" fill="#CECECE"/>
<path d="M30.3249 21H0V12.2012C0 11.5304 0.739632 11 1.67505 11H30.3249C31.2604 11 32 11.5304 32 12.2012V19.7988C32 20.4696 31.2386 21 30.3249 21Z" fill="#1C96A1"/>
<path d="M32 18V20.6786C32 21.4165 31.2386 22 30.3249 22H0V12.3214C0 11.5835 0.761386 11 1.67505 11H2.54521V14.4321C2.54521 17.7785 5.98232 18 10.2461 18H32Z" fill="#1C96A1"/>
<path d="M0 22L3.64181 26.1564V22H0Z" fill="#1C96A2"/>
<path d="M8.40676 20.12C7.86676 20.12 7.36342 20.0333 6.89676 19.86C6.43676 19.68 6.03676 19.4267 5.69676 19.1C5.35676 18.7733 5.09009 18.39 4.89676 17.95C4.71009 17.51 4.61676 17.0267 4.61676 16.5C4.61676 15.9733 4.71009 15.49 4.89676 15.05C5.09009 14.61 5.35676 14.2267 5.69676 13.9C6.04342 13.5733 6.44676 13.3233 6.90676 13.15C7.36676 12.97 7.87009 12.88 8.41676 12.88C9.02343 12.88 9.57009 12.9867 10.0568 13.2C10.5501 13.4067 10.9634 13.7133 11.2968 14.12L10.2568 15.08C10.0168 14.8067 9.75009 14.6033 9.45676 14.47C9.16342 14.33 8.84342 14.26 8.49676 14.26C8.17009 14.26 7.87009 14.3133 7.59676 14.42C7.32342 14.5267 7.08676 14.68 6.88676 14.88C6.68676 15.08 6.53009 15.3167 6.41676 15.59C6.31009 15.8633 6.25676 16.1667 6.25676 16.5C6.25676 16.8333 6.31009 17.1367 6.41676 17.41C6.53009 17.6833 6.68676 17.92 6.88676 18.12C7.08676 18.32 7.32342 18.4733 7.59676 18.58C7.87009 18.6867 8.17009 18.74 8.49676 18.74C8.84342 18.74 9.16342 18.6733 9.45676 18.54C9.75009 18.4 10.0168 18.19 10.2568 17.91L11.2968 18.87C10.9634 19.2767 10.5501 19.5867 10.0568 19.8C9.57009 20.0133 9.02009 20.12 8.40676 20.12ZM12.0907 20V13H13.4307L16.4107 17.94H15.7007L18.6307 13H19.9607L19.9807 20H18.4607L18.4507 15.33H18.7307L16.3907 19.26H15.6607L13.2707 15.33H13.6107V20H12.0907ZM21.3415 20V13H24.5215C25.2815 13 25.9515 13.1467 26.5315 13.44C27.1115 13.7267 27.5649 14.13 27.8915 14.65C28.2182 15.17 28.3815 15.7867 28.3815 16.5C28.3815 17.2067 28.2182 17.8233 27.8915 18.35C27.5649 18.87 27.1115 19.2767 26.5315 19.57C25.9515 19.8567 25.2815 20 24.5215 20H21.3415ZM22.9615 18.67H24.4415C24.9082 18.67 25.3115 18.5833 25.6515 18.41C25.9982 18.23 26.2649 17.9767 26.4515 17.65C26.6449 17.3233 26.7415 16.94 26.7415 16.5C26.7415 16.0533 26.6449 15.67 26.4515 15.35C26.2649 15.0233 25.9982 14.7733 25.6515 14.6C25.3115 14.42 24.9082 14.33 24.4415 14.33H22.9615V18.67Z" fill="white"/>
</svg>
